<svg xmlns="http://www.w3.org/2000/svg" xmlns:xlink="http://www.w3.org/1999/xlink" viewBox="0 0 349.08 129.92"><defs><style>.cls-1{fill:url(#UniChat);}.cls-2{fill:#f7f7f7;}</style><linearGradient id="UniChat" y1="64.96" x2="173" y2="64.96" gradientUnits="userSpaceOnUse"><stop offset="0" stop-color="#90e857"/><stop offset="1" stop-color="#3ad59f"/></linearGradient></defs><g id="Ebene_2" data-name="Ebene 2"><g id="Ebene_1-2" data-name="Ebene 1"><path class="cls-1" d="M158.36,0H14.64A14.63,14.63,0,0,0,0,14.64V84.36A14.61,14.61,0,0,0,4.66,95.07C11,101,17.47,106.67,23.58,112.78l15.29,15.29a6.36,6.36,0,0,0,9,0l23.21-23.21A20,20,0,0,1,85.19,99h73.17A14.63,14.63,0,0,0,173,84.36V14.64A14.63,14.63,0,0,0,158.36,0ZM117.93,68.57c-.19,2.27-2.32,4.76-4.2,6.42-5,4.37-11.15,6.15-17.55,7.15-9.86,1.54-19.6,1.15-29.05-2.29a38.34,38.34,0,0,1-7.08-3.53c-4.2-2.62-6.48-6.26-6.18-11.51s.06-10.6.06-16.07a3.51,3.51,0,0,1,.74.08c7.11,2.86,7.11,2.86,7.11,10.43v7.66L65.94,63l3.87,3.63v-11c3.08,1.36,6,2.23,8.53,3.84,5.31,3.45,10.07,2.93,15.56,0,7.74-4.1,15.94-7.31,24.23-11C118.13,55.36,118.49,62,117.93,68.57Zm2.89-26.18C109.94,47.29,99.06,52.21,88.14,57a4.88,4.88,0,0,1-3.53.23c-15.29-6.76-30.52-13.64-45.76-20.5a9.82,9.82,0,0,1-.85-.52l12.07-5.44c11.28-5.07,22.57-10.11,33.81-15.24a4.62,4.62,0,0,1,4.28-.05c14.59,6.63,29.22,13.16,43.84,19.73.61.28,1.2.61,2.2,1.12Z"/><path class="cls-2" d="M214.58,62.39c-13.77,0-22.64-9.21-22.64-25.63V4.58h4.4c3.57,0,7,2.57,7,10.46V36c0,10.62,3.57,15.77,12.36,15.77,8.05,0,11.36-5.31,11.36-15.34V4.6h4.31c4.31,0,7.13,3.14,7.13,10.11V35.79C238.55,52.44,230.84,62.39,214.58,62.39Z"/><path class="cls-2" d="M278,61.39c-5,0-8.13-3.15-8.13-7.29V36.35c0-7.55-3.32-10.87-9-10.87-4.81,0-8.13,3.64-8.13,10V61.4h-3.32c-4.73,0-7.8-3.15-7.8-7.3V34.77c0-9.46,6.22-19.16,20.16-19.16,10.53,0,19.24,7.05,19.24,19.74V61.4h-3Z"/><path class="cls-2" d="M289.29,14.69a6.55,6.55,0,0,1-6.47-6.55,6.47,6.47,0,0,1,6.47-6.47,6.54,6.54,0,0,1,6.55,6.47A6.61,6.61,0,0,1,289.29,14.69Zm7.88,48.36c-8.63,0-13.35-4.89-13.35-13.94V18.83H287c5,0,8,2.65,8,8.29V48c0,4.49,1.91,5.9,6.8,5.9h2.07v2.41C303.8,61.15,301.9,63.05,297.17,63.05Z"/><path class="cls-2" d="M236.64,82.47c-3.57-4.65-10.7-6.14-15.59-6.14-10.12,0-17.67,7.3-17.67,18.33,0,13.35,7.38,20.07,18.08,20.07,5.64,0,11.94-2.24,15-5.47h.41v4.23c0,7.8-9,11.11-16.92,11.11-15.1,0-28-11.28-28-28.28,0-17.5,11.7-29.86,29-29.86,9.29,0,16.09,3.82,16.09,11.61v4.4Z"/><path class="cls-2" d="M275.81,124.11c-4.65,0-7.55-2.65-7.55-7.47V98.39c0-7.29-4-10.2-8.88-10.2-3.48,0-8,2.65-8,10.53V124.1h-3.65c-5.23,0-7.63-2.9-7.63-7.47V64.39h3.48c5.31,0,7.88,3,7.88,7.13V84.29c1.66-2.65,5.47-6,9.71-6,11.53,0,18.33,6.88,18.33,19.58v26.21Z"/><path class="cls-2" d="M302.61,124.86h-2.24c-10.62,0-17.92-6-17.92-14.18,0-8,5.81-14,22.23-14h3.9v-.58c0-6.3-3-8.21-9.62-8.21-8,0-12.53,3.07-14.18,5.14h-.42V89.45c0-5,4.48-11,16.26-11,9.95,0,18.91,4.65,18.91,20.07v10.29C319.53,118.3,312.57,124.86,302.61,124.86Zm6.06-20.24h-4c-8.46,0-10.87,2-10.87,5.64,0,3.48,2.82,5.56,7.71,5.56s7.13-2.32,7.13-6.88v-4.32Z"/><path class="cls-2" d="M325.77,72.27c1.49-1.73,3.48-3.07,5.23-3.07h2.57V79.32h15.51v4.56c0,2.32-2.07,5.31-6.64,5.31h-8.88v17.5c0,5.81,2.57,8,7.05,8,3.57,0,6.3-.5,8.05-1.58h.42v4c0,4.56-3.32,7.47-9.79,7.47-11.28,0-16.75-6.14-16.75-16.59V81.15C322.53,76.75,323.36,75.09,325.77,72.27Z"/></g></g></svg>