<?xml version="1.0" encoding="iso-8859-1"?>
<!-- Generator: Adobe Illustrator 17.1.0, SVG Export Plug-In . SVG Version: 6.00 Build 0)  -->
<!DOCTYPE svg PUBLIC "-//W3C//DTD SVG 1.1//EN" "http://www.w3.org/Graphics/SVG/1.1/DTD/svg11.dtd">
<svg version="1.1" id="Capa_1" xmlns="http://www.w3.org/2000/svg" xmlns:xlink="http://www.w3.org/1999/xlink" x="0px" y="0px"
	 viewBox="0 0 463 463" style="enable-background:new 0 0 463 463;" xml:space="preserve">
<g>
	<path d="M451.431,136.823L326.176,11.57C318.716,4.109,308.797,0,298.245,0H31.5C14.131,0,0,14.131,0,31.5v400
		C0,448.869,14.131,463,31.5,463h400c17.369,0,31.5-14.131,31.5-31.5V164.755C463,154.205,458.892,144.285,451.431,136.823z M71,15
		h209v104.5c0,13.51-10.991,24.5-24.5,24.5h-160C81.991,144,71,133.01,71,119.5V15z M392,448H71V279.5
		c0-13.51,10.991-24.5,24.5-24.5h272c13.509,0,24.5,10.99,24.5,24.5V448z M448,431.5c0,9.099-7.402,16.5-16.5,16.5H407V279.5
		c0-21.78-17.72-39.5-39.5-39.5h-272C73.72,240,56,257.72,56,279.5V448H31.5c-9.098,0-16.5-7.401-16.5-16.5v-400
		C15,22.401,22.402,15,31.5,15H56v104.5c0,21.78,17.72,39.5,39.5,39.5h160c21.78,0,39.5-17.72,39.5-39.5V15h3.245
		c6.544,0,12.697,2.549,17.324,7.177L440.824,147.43c4.627,4.629,7.176,10.781,7.176,17.325V431.5z"/>
	<path d="M207.5,127h48c4.142,0,7.5-3.357,7.5-7.5v-80c0-4.143-3.358-7.5-7.5-7.5h-48c-4.142,0-7.5,3.357-7.5,7.5v80
		C200,123.643,203.358,127,207.5,127z M215,47h33v65h-33V47z"/>
	<path d="M343.5,312H199.501c-4.142,0-7.5,3.357-7.5,7.5s3.358,7.5,7.5,7.5H343.5c4.142,0,7.5-3.357,7.5-7.5S347.642,312,343.5,312z
		"/>
	<path d="M119.5,327h48.002c4.142,0,7.5-3.357,7.5-7.5s-3.358-7.5-7.5-7.5H119.5c-4.142,0-7.5,3.357-7.5,7.5S115.358,327,119.5,327z
		"/>
	<path d="M343.5,376h-224c-4.142,0-7.5,3.357-7.5,7.5s3.358,7.5,7.5,7.5h224c4.142,0,7.5-3.357,7.5-7.5S347.642,376,343.5,376z"/>
</g>
<g>
</g>
<g>
</g>
<g>
</g>
<g>
</g>
<g>
</g>
<g>
</g>
<g>
</g>
<g>
</g>
<g>
</g>
<g>
</g>
<g>
</g>
<g>
</g>
<g>
</g>
<g>
</g>
<g>
</g>
</svg>
