<svg xmlns="http://www.w3.org/2000/svg" xmlns:xlink="http://www.w3.org/1999/xlink" viewBox="0 0 293.51 49.88"><defs><style>.cls-1{fill:url(#UniChat);}.cls-2{fill:#27323a;}</style><linearGradient id="UniChat" y1="25" x2="66.26" y2="25" gradientUnits="userSpaceOnUse"><stop offset="0" stop-color="#90e857"/><stop offset="1" stop-color="#3ad59f"/></linearGradient></defs><g id="Ebene_2" data-name="Ebene 2"><g id="Ebene_1-2" data-name="Ebene 1"><path class="cls-1" d="M60.65.12h-55A5.61,5.61,0,0,0,0,5.73v26.7a5.58,5.58,0,0,0,1.79,4.1C4.21,38.79,6.69,41,9,43.32l5.86,5.85a2.42,2.42,0,0,0,3.43,0l8.89-8.89A7.7,7.7,0,0,1,32.63,38h28a5.61,5.61,0,0,0,5.61-5.61V5.73A5.61,5.61,0,0,0,60.65.12ZM45.17,26.39a4.42,4.42,0,0,1-1.61,2.45,12.7,12.7,0,0,1-6.72,2.74,22.15,22.15,0,0,1-11.13-.87A14.32,14.32,0,0,1,23,29.35,4.55,4.55,0,0,1,20.63,25c.11-2,0-4.06,0-6.16a2.31,2.31,0,0,1,.29,0c2.72,1.1,2.72,1.1,2.72,4v2.93l1.59-1.48,1.49,1.39V21.45A23,23,0,0,1,30,22.92c2,1.32,3.86,1.12,6,0,3-1.57,6.11-2.8,9.28-4.22C45.24,21.33,45.38,23.87,45.17,26.39Zm1.1-10c-4.16,1.88-8.33,3.76-12.51,5.6a1.84,1.84,0,0,1-1.36.09q-8.77-3.89-17.52-7.85a3.08,3.08,0,0,1-.33-.2l4.63-2.08C23.5,10,27.82,8,32.13,6.08a1.77,1.77,0,0,1,1.63,0c5.59,2.54,11.2,5,16.79,7.56.24.1.46.23.85.43Z"/><path class="cls-2" d="M95,49.14c-11.09,0-18.23-7.42-18.23-20.65V2.57h3.54c2.88,0,5.68,2.07,5.68,8.42v16.9c0,8.56,2.88,12.7,10,12.7,6.48,0,9.15-4.28,9.15-12.36V2.58h3.47c3.47,0,5.74,2.53,5.74,8.15v17C114.26,41.12,108.05,49.14,95,49.14Z"/><path class="cls-2" d="M146,48.33c-4,0-6.55-2.54-6.55-5.88V28.15c0-6.08-2.68-8.75-7.28-8.75-3.88,0-6.55,2.94-6.55,8.08V48.33H123c-3.81,0-6.28-2.54-6.28-5.88V26.88c0-7.62,5-15.43,16.24-15.43,8.48,0,15.5,5.68,15.5,15.9v21Z"/><path class="cls-2" d="M155.13,10.71a5.28,5.28,0,0,1-5.21-5.27A5.21,5.21,0,0,1,155.13.23a5.27,5.27,0,0,1,5.28,5.21A5.32,5.32,0,0,1,155.13,10.71Zm6.35,39c-6.95,0-10.75-3.94-10.75-11.23V14.05h2.53c4,0,6.42,2.13,6.42,6.68V37.56c0,3.61,1.53,4.75,5.47,4.75h1.67v1.94C166.82,48.14,165.29,49.67,161.48,49.67Z"/><path class="cls-2" d="M202.94,14.56c-2.88-3.74-8.62-4.94-12.56-4.94-8.15,0-14.23,5.88-14.23,14.76,0,10.76,5.94,16.17,14.56,16.17,4.55,0,9.62-1.81,12.09-4.41h.33v3.41c0,6.28-7.28,9-13.63,9-12.16,0-22.58-9.09-22.58-22.78,0-14.1,9.42-24,23.38-24,7.48,0,13,3.07,13,9.35v3.54Z"/><path class="cls-2" d="M234.49,48.1c-3.74,0-6.08-2.13-6.08-6V27.39c0-5.88-3.21-8.22-7.15-8.22-2.81,0-6.49,2.14-6.49,8.48V48.1h-2.94c-4.21,0-6.14-2.34-6.14-6V0h2.8c4.28,0,6.35,2.41,6.35,5.74V16c1.33-2.14,4.4-4.81,7.82-4.81,9.29,0,14.76,5.54,14.76,15.77V48.1Z"/><path class="cls-2" d="M256.08,48.71h-1.8c-8.56,0-14.44-4.81-14.44-11.42,0-6.41,4.68-11.3,17.91-11.3h3.14v-.46c0-5.08-2.41-6.62-7.75-6.62-6.49,0-10.09,2.48-11.42,4.14h-.34V20.18c0-4,3.61-8.82,13.1-8.82,8,0,15.23,3.74,15.23,16.16v8.29C269.71,43.42,264.1,48.71,256.08,48.71ZM261,32.41h-3.21C250.94,32.41,249,34,249,37s2.27,4.48,6.21,4.48S261,39.56,261,35.89V32.41Z"/><path class="cls-2" d="M274.73,6.35c1.21-1.4,2.81-2.48,4.22-2.48H281V12h12.49V15.7c0,1.87-1.67,4.28-5.35,4.28H281V34.07c0,4.68,2.07,6.49,5.68,6.49,2.87,0,5.07-.41,6.48-1.28h.34v3.21c0,3.67-2.67,6-7.88,6-9.09,0-13.5-4.95-13.5-13.37V13.5C272.13,10,272.79,8.62,274.73,6.35Z"/></g></g></svg>