<svg xmlns="http://www.w3.org/2000/svg" xmlns:xlink="http://www.w3.org/1999/xlink" viewBox="0 0 348.17 130.97"><defs><style>.cls-1{fill:url(#UniChat);}.cls-2{fill:#27323a;}</style><linearGradient id="UniChat" y1="66.01" x2="173" y2="66.01" gradientUnits="userSpaceOnUse"><stop offset="0" stop-color="#90e857"/><stop offset="1" stop-color="#3ad59f"/></linearGradient></defs><g id="Ebene_2" data-name="Ebene 2"><g id="Ebene_1-2" data-name="Ebene 1"><path class="cls-1" d="M158.36,1H14.64A14.64,14.64,0,0,0,0,15.68V85.4A14.58,14.58,0,0,0,4.66,96.11C11,102,17.47,107.72,23.58,113.83l15.29,15.28a6.36,6.36,0,0,0,9,0L71.05,105.9A20,20,0,0,1,85.19,100h73.17A14.63,14.63,0,0,0,173,85.4V15.68A14.64,14.64,0,0,0,158.36,1ZM117.93,69.61c-.19,2.27-2.32,4.76-4.2,6.42-5,4.37-11.15,6.15-17.55,7.15-9.86,1.54-19.6,1.15-29.05-2.29a38.34,38.34,0,0,1-7.08-3.53c-4.2-2.62-6.48-6.26-6.18-11.51s.06-10.6.06-16.07a3.51,3.51,0,0,1,.74.08c7.11,2.86,7.11,2.86,7.11,10.43V68l4.16-3.87,3.87,3.63v-11c3.08,1.36,6,2.23,8.53,3.84,5.31,3.45,10.07,2.93,15.56,0,7.74-4.1,15.94-7.31,24.23-11C118.13,56.4,118.49,63.05,117.93,69.61Zm2.89-26.18c-10.88,4.9-21.76,9.82-32.68,14.63a4.88,4.88,0,0,1-3.53.23c-15.29-6.76-30.52-13.64-45.76-20.5a9.82,9.82,0,0,1-.85-.52l12.07-5.44c11.28-5.07,22.57-10.11,33.81-15.24a4.62,4.62,0,0,1,4.28-.05C102.75,23.17,117.38,29.7,132,36.27c.61.28,1.2.61,2.2,1.12Z"/><path class="cls-2" d="M213.67,60.72C199.9,60.72,191,51.51,191,35.09V2.91h4.4c3.57,0,7,2.57,7,10.45v21c0,10.62,3.57,15.76,12.36,15.76,8,0,11.36-5.31,11.36-15.34V2.92h4.31c4.31,0,7.13,3.15,7.13,10.12V34.11C237.64,50.77,229.93,60.72,213.67,60.72Z"/><path class="cls-2" d="M277.05,59.72c-5,0-8.13-3.15-8.13-7.3V34.67c0-7.55-3.32-10.87-9-10.87-4.81,0-8.13,3.65-8.13,10V59.72h-3.32c-4.73,0-7.8-3.15-7.8-7.3V33.09c0-9.46,6.22-19.16,20.16-19.16C271.32,13.93,280,21,280,33.67V59.72Z"/><path class="cls-2" d="M288.38,13a6.55,6.55,0,0,1-6.47-6.55A6.47,6.47,0,0,1,288.38,0a6.54,6.54,0,0,1,6.55,6.47A6.61,6.61,0,0,1,288.38,13Zm7.88,48.36c-8.63,0-13.35-4.89-13.35-13.94V17.16h3.15c5,0,8,2.65,8,8.29v20.9c0,4.48,1.91,5.89,6.8,5.89h2.07v2.41C302.89,59.48,301,61.38,296.26,61.38Z"/><path class="cls-2" d="M235.73,80.8c-3.57-4.65-10.7-6.14-15.59-6.14C210,74.66,202.47,82,202.47,93c0,13.35,7.38,20.07,18.08,20.07,5.64,0,11.94-2.24,15-5.47H236v4.23c0,7.8-9,11.11-16.92,11.11-15.1,0-28-11.28-28-28.28,0-17.5,11.7-29.86,29-29.86,9.29,0,16.09,3.82,16.09,11.61v4.4Z"/><path class="cls-2" d="M274.9,122.44c-4.65,0-7.55-2.65-7.55-7.47V96.72c0-7.3-4-10.2-8.88-10.2-3.48,0-8.05,2.65-8.05,10.53v25.38h-3.65c-5.23,0-7.63-2.9-7.63-7.47V62.72h3.48c5.31,0,7.88,3,7.88,7.13V82.62c1.66-2.65,5.47-6,9.71-6,11.53,0,18.33,6.88,18.33,19.58v26.21Z"/><path class="cls-2" d="M301.7,123.19h-2.24c-10.62,0-17.92-6-17.92-14.18,0-8,5.81-14,22.23-14h3.9v-.58c0-6.3-3-8.21-9.62-8.21-8.05,0-12.53,3.07-14.18,5.14h-.42V87.77c0-5,4.48-11,16.26-11,10,0,18.91,4.65,18.91,20.07v10.29C318.62,116.63,311.66,123.19,301.7,123.19ZM307.76,103h-4c-8.46,0-10.87,2-10.87,5.64,0,3.48,2.82,5.56,7.71,5.56s7.13-2.32,7.13-6.88V103Z"/><path class="cls-2" d="M324.86,70.6c1.49-1.74,3.48-3.07,5.23-3.07h2.57V77.65h15.51v4.56c0,2.32-2.07,5.31-6.64,5.31h-8.88V105c0,5.81,2.57,8,7.05,8,3.57,0,6.3-.5,8.05-1.58h.42v4c0,4.56-3.32,7.47-9.79,7.47-11.28,0-16.75-6.14-16.75-16.59V79.48C321.62,75.08,322.45,73.42,324.86,70.6Z"/></g></g></svg>