<svg xmlns="http://www.w3.org/2000/svg" xmlns:xlink="http://www.w3.org/1999/xlink" viewBox="0 0 318.43 130.18"><defs><style>.cls-1{fill:#faf3f3;}.cls-2{fill:url(#UniChat);}</style><linearGradient id="UniChat" y1="65.22" x2="173" y2="65.22" gradientUnits="userSpaceOnUse"><stop offset="0" stop-color="#90e857"/><stop offset="1" stop-color="#3ad59f"/></linearGradient></defs><g id="Ebene_2" data-name="Ebene 2"><g id="Ebene_1-2" data-name="Ebene 1"><path class="cls-1" d="M210.23,48.84c-11.07,0-18.21-7.4-18.21-20.61V2.34h3.54c2.87,0,5.67,2.07,5.67,8.41V27.63c0,8.54,2.87,12.68,10,12.68,6.47,0,9.13-4.27,9.13-12.34V2.35h3.47c3.47,0,5.74,2.53,5.74,8.14v17C229.52,40.84,223.31,48.84,210.23,48.84Z"/><path class="cls-1" d="M261.22,48c-4,0-6.54-2.53-6.54-5.87V27.89c0-6.07-2.67-8.74-7.27-8.74-3.87,0-6.54,2.93-6.54,8.07V48H238.2c-3.81,0-6.28-2.53-6.28-5.87V26.62c0-7.61,5-15.41,16.22-15.41,8.47,0,15.48,5.67,15.48,15.87V48Z"/><path class="cls-1" d="M270.33,10.47a5.26,5.26,0,0,1-5.2-5.27,5.2,5.2,0,0,1,5.2-5.2,5.26,5.26,0,0,1,5.27,5.2A5.32,5.32,0,0,1,270.33,10.47Zm6.34,38.91c-6.94,0-10.74-3.94-10.74-11.22V13.8h2.54c4,0,6.4,2.14,6.4,6.67V37.28c0,3.61,1.54,4.74,5.47,4.74H282V44C282,47.85,280.48,49.38,276.67,49.38Z"/><path class="cls-1" d="M228,65c-2.87-3.74-8.61-4.94-12.54-4.94-8.14,0-14.22,5.87-14.22,14.74,0,10.74,5.94,16.15,14.55,16.15,4.54,0,9.6-1.8,12.07-4.4h.33V90c0,6.27-7.27,8.94-13.61,8.94-12.15,0-22.55-9.08-22.55-22.75,0-14.08,9.41-24,23.35-24,7.47,0,12.94,3.07,12.94,9.34V65Z"/><path class="cls-1" d="M259.49,98.49c-3.74,0-6.07-2.13-6.07-6V77.8c0-5.87-3.21-8.2-7.15-8.2-2.8,0-6.47,2.13-6.47,8.47V98.49h-2.94c-4.21,0-6.14-2.34-6.14-6v-42h2.8c4.27,0,6.34,2.41,6.34,5.74V66.46c1.34-2.13,4.4-4.8,7.81-4.8,9.28,0,14.75,5.53,14.75,15.75V98.49Z"/><path class="cls-1" d="M281.05,99.1h-1.8c-8.55,0-14.42-4.81-14.42-11.41,0-6.4,4.67-11.28,17.88-11.28h3.14V76c0-5.07-2.41-6.61-7.74-6.61-6.47,0-10.08,2.47-11.41,4.14h-.33V70.6c0-4,3.6-8.8,13.08-8.8,8,0,15.21,3.74,15.21,16.14v8.28C294.66,93.82,289.06,99.1,281.05,99.1Zm4.87-16.28h-3.2c-6.81,0-8.74,1.6-8.74,4.53s2.26,4.47,6.2,4.47,5.73-1.86,5.73-5.53V82.82Z"/><path class="cls-1" d="M299.68,56.79c1.2-1.4,2.8-2.47,4.2-2.47H306v8.14h12.48v3.67c0,1.87-1.67,4.27-5.34,4.27h-7.15V84.48c0,4.67,2.07,6.48,5.68,6.48,2.87,0,5.06-.41,6.47-1.27h.34v3.2c0,3.66-2.67,6-7.88,6-9.07,0-13.47-4.94-13.47-13.35V63.94C297.07,60.4,297.74,59.06,299.68,56.79Z"/><path class="cls-2" d="M170.68,7,136.12,19.54,92.59,35.33a3.06,3.06,0,0,1-3.47-4.73l.73-1.11A13.12,13.12,0,0,0,92.06,24a12.63,12.63,0,0,0-.65-6,14.8,14.8,0,0,0-.93-2,13.79,13.79,0,0,0-1.24-1.77,7.68,7.68,0,0,0-.73-.79q-.39-.39-.81-.75a11,11,0,0,0-2.94-1.85,5.86,5.86,0,0,0-.67-.28,1.21,1.21,0,0,0-.33-.12,9.53,9.53,0,0,0-1-.29,8.42,8.42,0,0,0-1-.24.18.18,0,0,0-.1,0,12,12,0,0,0-2.09-.17A12.62,12.62,0,0,0,67.25,19.82c-.08.43-.14.84-.2,1.28s0,.71,0,1.06a.68.68,0,0,0,0,.2v.1a9.87,9.87,0,0,0,.06,1.1c0,.08,0,.14,0,.22a10.87,10.87,0,0,0,.18,1.12v0a12.73,12.73,0,0,0,1.12,3.17c.08.14.16.28.23.42s.28.47.42.69l.35.51c.14.2.28.37.44.57s.57.67.88,1a9.59,9.59,0,0,0,.89.8,9.46,9.46,0,0,0,1,.73,7,7,0,0,0,1,.63,7.19,7.19,0,0,0,1,.5,3.48,3.48,0,0,0,.67.27,3.73,3.73,0,0,1,2.28,2.31,3.88,3.88,0,0,1-1.71,4.59L23.24,71.51,0,84.91a2.81,2.81,0,0,1,0-.29V14.9A14.65,14.65,0,0,1,14.64.26H158.36A14.61,14.61,0,0,1,170.68,7ZM78.62,67.15,74,62.07a7.74,7.74,0,0,0-9.68-1.54L34.47,77.72l-3.19,1.83L4.39,95.06a13.86,13.86,0,0,0,1.48,1.28,58.79,58.79,0,0,1,6.29,5.28l26.71,26.71a6.36,6.36,0,0,0,9,0h0a40,40,0,0,0,6.33-8.26l6.45-11.18,0,0L79.5,76.2A7.74,7.74,0,0,0,78.62,67.15Zm57.5-23.8L110.9,47.9l-.42.08-5.36.94c-.25,0-.49.1-.73.16A7.78,7.78,0,0,0,99,58.62l1.17,4.24A7.76,7.76,0,0,0,105,68.1l31.16,11.35,34.81,12.68A14.64,14.64,0,0,0,173,84.62V36.68ZM107.9,83.92a15.49,15.49,0,0,0-21.58,3.79c-.27.39-.51.78-.75,1.18L79.62,99.26H129.8Z"/></g></g></svg>